<mxfile host="drawio-plugin" modified="2025-04-01T09:27:10.864Z" agent="5.0 (Windows NT 6.2; Win64; x64) AppleWebKit/537.36 (KHTML, like Gecko) Chrome/104.0.5112.102 Safari/537.36" etag="FbrinZFTD7rQR1V5A4ir" version="20.5.3" type="embed"><diagram id="23iRSUPoRavnBvh4doch" name="Page-1"><mxGraphModel dx="1753" dy="402" grid="1" gridSize="10" guides="1" tooltips="1" connect="1" arrows="1" fold="1" page="1" pageScale="1" pageWidth="827" pageHeight="1169" math="0" shadow="0"><root><mxCell id="0"/><mxCell id="1" parent="0"/><mxCell id="12" style="edgeStyle=orthogonalEdgeStyle;rounded=0;orthogonalLoop=1;jettySize=auto;html=1;entryX=0.011;entryY=0.525;entryDx=0;entryDy=0;entryPerimeter=0;fontSize=18;strokeWidth=2;" parent="1" source="2" target="4" edge="1"><mxGeometry relative="1" as="geometry"/></mxCell><mxCell id="13" style="edgeStyle=orthogonalEdgeStyle;rounded=0;orthogonalLoop=1;jettySize=auto;html=1;fontSize=18;strokeWidth=2;" parent="1" source="2" target="10" edge="1"><mxGeometry relative="1" as="geometry"/></mxCell><mxCell id="14" style="edgeStyle=orthogonalEdgeStyle;rounded=0;orthogonalLoop=1;jettySize=auto;html=1;entryX=-0.011;entryY=0.617;entryDx=0;entryDy=0;entryPerimeter=0;fontSize=18;strokeWidth=2;" parent="1" source="2" target="6" edge="1"><mxGeometry relative="1" as="geometry"/></mxCell><mxCell id="2" value="&lt;font style=&quot;font-size: 24px;&quot;&gt;SQL Routing&lt;/font&gt;" style="rounded=1;whiteSpace=wrap;html=1;fillColor=#60a917;fontColor=#ffffff;strokeColor=#2D7600;" parent="1" vertex="1"><mxGeometry x="350" y="220" width="170" height="210" as="geometry"/></mxCell><mxCell id="4" value="" style="sketch=0;aspect=fixed;html=1;points=[];align=center;image;fontSize=12;image=img/lib/mscae/Database_General.svg;" parent="1" vertex="1"><mxGeometry x="650" y="50" width="91.2" height="120" as="geometry"/></mxCell><mxCell id="6" value="" style="sketch=0;aspect=fixed;html=1;points=[];align=center;image;fontSize=12;image=img/lib/mscae/Database_General.svg;" parent="1" vertex="1"><mxGeometry x="650" y="460" width="91.2" height="120" as="geometry"/></mxCell><mxCell id="10" value="" style="sketch=0;aspect=fixed;html=1;points=[];align=center;image;fontSize=12;image=img/lib/mscae/Database_General.svg;" parent="1" vertex="1"><mxGeometry x="650" y="265" width="91.2" height="120" as="geometry"/></mxCell><mxCell id="15" style="edgeStyle=orthogonalEdgeStyle;rounded=0;orthogonalLoop=1;jettySize=auto;html=1;entryX=0;entryY=0.5;entryDx=0;entryDy=0;fontSize=24;strokeWidth=2;" parent="1" source="11" target="2" edge="1"><mxGeometry relative="1" as="geometry"/></mxCell><mxCell id="11" value="&lt;font style=&quot;font-size: 24px;&quot;&gt;select * from user&lt;/font&gt;" style="text;html=1;strokeColor=none;fillColor=none;align=center;verticalAlign=middle;whiteSpace=wrap;rounded=0;fontSize=18;" parent="1" vertex="1"><mxGeometry x="70" y="302.5" width="210" height="45" as="geometry"/></mxCell><mxCell id="19" value="&lt;span style=&quot;&quot;&gt;sql will be routed to a specific database instance for execution&lt;/span&gt;" style="text;html=1;strokeColor=none;fillColor=none;align=center;verticalAlign=middle;whiteSpace=wrap;rounded=0;fontSize=24;" parent="1" vertex="1"><mxGeometry x="90" y="60" width="390" height="120" as="geometry"/></mxCell><mxCell id="32" style="edgeStyle=orthogonalEdgeStyle;rounded=0;orthogonalLoop=1;jettySize=auto;html=1;strokeWidth=2;fontSize=24;" parent="1" source="22" target="31" edge="1"><mxGeometry relative="1" as="geometry"/></mxCell><mxCell id="22" value="&lt;b&gt;&lt;font style=&quot;font-size: 24px;&quot;&gt;DataSourceManager&lt;/font&gt;&lt;/b&gt;" style="rounded=1;whiteSpace=wrap;html=1;fillColor=#60a917;fontColor=#ffffff;strokeColor=#2D7600;" parent="1" vertex="1"><mxGeometry x="220" y="1100" width="290" height="100" as="geometry"/></mxCell><mxCell id="23" value="DataSource 1" style="rounded=1;whiteSpace=wrap;html=1;fontSize=24;fillColor=#e3c800;fontColor=#000000;strokeColor=#B09500;" parent="1" vertex="1"><mxGeometry x="30" y="1410" width="160" height="70" as="geometry"/></mxCell><mxCell id="24" value="DataSource 2" style="rounded=1;whiteSpace=wrap;html=1;fontSize=24;fillColor=#e3c800;fontColor=#000000;strokeColor=#B09500;" parent="1" vertex="1"><mxGeometry x="285" y="1410" width="160" height="70" as="geometry"/></mxCell><mxCell id="25" value="DataSource 3" style="rounded=1;whiteSpace=wrap;html=1;fontSize=24;fillColor=#e3c800;fontColor=#000000;strokeColor=#B09500;" parent="1" vertex="1"><mxGeometry x="520" y="1410" width="160" height="70" as="geometry"/></mxCell><mxCell id="33" style="edgeStyle=orthogonalEdgeStyle;rounded=0;orthogonalLoop=1;jettySize=auto;html=1;strokeWidth=2;fontSize=24;" parent="1" source="31" target="24" edge="1"><mxGeometry relative="1" as="geometry"/></mxCell><mxCell id="34" style="edgeStyle=orthogonalEdgeStyle;rounded=0;orthogonalLoop=1;jettySize=auto;html=1;strokeWidth=2;fontSize=24;exitX=0.5;exitY=1;exitDx=0;exitDy=0;" parent="1" source="31" target="25" edge="1"><mxGeometry relative="1" as="geometry"/></mxCell><mxCell id="35" style="edgeStyle=orthogonalEdgeStyle;rounded=0;orthogonalLoop=1;jettySize=auto;html=1;strokeWidth=2;fontSize=24;exitX=0.5;exitY=1;exitDx=0;exitDy=0;" parent="1" source="31" target="23" edge="1"><mxGeometry relative="1" as="geometry"/></mxCell><mxCell id="31" value="&lt;b&gt;&lt;font style=&quot;font-size: 24px;&quot;&gt;Health Monitoring&lt;/font&gt;&lt;/b&gt;" style="rounded=1;whiteSpace=wrap;html=1;fillColor=#f0a30a;fontColor=#000000;strokeColor=#BD7000;" parent="1" vertex="1"><mxGeometry x="255" y="1260" width="220" height="80" as="geometry"/></mxCell><mxCell id="40" style="edgeStyle=orthogonalEdgeStyle;rounded=0;orthogonalLoop=1;jettySize=auto;html=1;strokeWidth=2;fontSize=24;" parent="1" source="37" target="22" edge="1"><mxGeometry relative="1" as="geometry"/></mxCell><mxCell id="37" value="&lt;b&gt;&lt;font style=&quot;font-size: 24px;&quot;&gt;RoutingDataSource&lt;/font&gt;&lt;/b&gt;" style="rounded=1;whiteSpace=wrap;html=1;fillColor=#60a917;fontColor=#ffffff;strokeColor=#2D7600;" parent="1" vertex="1"><mxGeometry x="220" y="930" width="290" height="100" as="geometry"/></mxCell><mxCell id="41" value="" style="rounded=1;whiteSpace=wrap;html=1;fillColor=#d5e8d4;strokeColor=#82b366;gradientColor=#97d077;" parent="1" vertex="1"><mxGeometry x="70" y="1830" width="220" height="270" as="geometry"/></mxCell><mxCell id="42" value="&lt;font style=&quot;font-size: 24px;&quot; color=&quot;#000000&quot;&gt;&lt;b style=&quot;&quot;&gt;RouteGroup 1&lt;/b&gt;&lt;/font&gt;" style="text;html=1;strokeColor=none;fillColor=none;align=center;verticalAlign=middle;whiteSpace=wrap;rounded=0;" parent="1" vertex="1"><mxGeometry x="78.13" y="1850" width="203.75" height="40" as="geometry"/></mxCell><mxCell id="43" value="&lt;font color=&quot;#ffffff&quot;&gt;RouteRule 1&lt;/font&gt;" style="rounded=1;whiteSpace=wrap;html=1;fontSize=24;fillColor=#1ba1e2;strokeColor=#006EAF;fontColor=#ffffff;" parent="1" vertex="1"><mxGeometry x="96.25" y="1910" width="167.5" height="40" as="geometry"/></mxCell><mxCell id="44" value="&lt;font color=&quot;#ffffff&quot;&gt;RouteRule 2&lt;/font&gt;" style="rounded=1;whiteSpace=wrap;html=1;fontSize=24;fillColor=#1ba1e2;strokeColor=#006EAF;fontColor=#ffffff;" parent="1" vertex="1"><mxGeometry x="96.25" y="1974" width="167.5" height="40" as="geometry"/></mxCell><mxCell id="45" value="&lt;font color=&quot;#ffffff&quot;&gt;RouteRule 3&lt;/font&gt;" style="rounded=1;whiteSpace=wrap;html=1;fontSize=24;fillColor=#1ba1e2;strokeColor=#006EAF;fontColor=#ffffff;" parent="1" vertex="1"><mxGeometry x="96.25" y="2040" width="167.5" height="40" as="geometry"/></mxCell><mxCell id="46" value="" style="rounded=1;whiteSpace=wrap;html=1;fillColor=#d5e8d4;strokeColor=#82b366;gradientColor=#97d077;" parent="1" vertex="1"><mxGeometry x="310" y="1830" width="220" height="270" as="geometry"/></mxCell><mxCell id="47" value="&lt;font style=&quot;font-size: 24px;&quot; color=&quot;#000000&quot;&gt;&lt;b style=&quot;&quot;&gt;RouteGroup 2&lt;/b&gt;&lt;/font&gt;" style="text;html=1;strokeColor=none;fillColor=none;align=center;verticalAlign=middle;whiteSpace=wrap;rounded=0;" parent="1" vertex="1"><mxGeometry x="318.13" y="1850" width="203.75" height="40" as="geometry"/></mxCell><mxCell id="48" value="&lt;font color=&quot;#ffffff&quot;&gt;RouteRule 1&lt;/font&gt;" style="rounded=1;whiteSpace=wrap;html=1;fontSize=24;fillColor=#1ba1e2;strokeColor=#006EAF;fontColor=#ffffff;" parent="1" vertex="1"><mxGeometry x="336.25" y="1910" width="167.5" height="40" as="geometry"/></mxCell><mxCell id="49" value="&lt;font color=&quot;#ffffff&quot;&gt;RouteRule 2&lt;/font&gt;" style="rounded=1;whiteSpace=wrap;html=1;fontSize=24;fillColor=#1ba1e2;strokeColor=#006EAF;fontColor=#ffffff;" parent="1" vertex="1"><mxGeometry x="336.25" y="1974" width="167.5" height="40" as="geometry"/></mxCell><mxCell id="50" value="&lt;font color=&quot;#ffffff&quot;&gt;RouteRule 3&lt;/font&gt;" style="rounded=1;whiteSpace=wrap;html=1;fontSize=24;fillColor=#1ba1e2;strokeColor=#006EAF;fontColor=#ffffff;" parent="1" vertex="1"><mxGeometry x="336.25" y="2040" width="167.5" height="40" as="geometry"/></mxCell><mxCell id="51" value="" style="rounded=1;whiteSpace=wrap;html=1;fillColor=#d5e8d4;strokeColor=#82b366;gradientColor=#97d077;" parent="1" vertex="1"><mxGeometry x="550" y="1830" width="220" height="270" as="geometry"/></mxCell><mxCell id="52" value="&lt;font style=&quot;font-size: 24px;&quot; color=&quot;#000000&quot;&gt;&lt;b style=&quot;&quot;&gt;RouteGroup 3&lt;/b&gt;&lt;/font&gt;" style="text;html=1;strokeColor=none;fillColor=none;align=center;verticalAlign=middle;whiteSpace=wrap;rounded=0;" parent="1" vertex="1"><mxGeometry x="558.13" y="1850" width="203.75" height="40" as="geometry"/></mxCell><mxCell id="53" value="&lt;font color=&quot;#ffffff&quot;&gt;RouteRule 1&lt;/font&gt;" style="rounded=1;whiteSpace=wrap;html=1;fontSize=24;fillColor=#1ba1e2;strokeColor=#006EAF;fontColor=#ffffff;" parent="1" vertex="1"><mxGeometry x="576.25" y="1910" width="167.5" height="40" as="geometry"/></mxCell><mxCell id="54" value="&lt;font color=&quot;#ffffff&quot;&gt;RouteRule 2&lt;/font&gt;" style="rounded=1;whiteSpace=wrap;html=1;fontSize=24;fillColor=#1ba1e2;strokeColor=#006EAF;fontColor=#ffffff;" parent="1" vertex="1"><mxGeometry x="576.25" y="1974" width="167.5" height="40" as="geometry"/></mxCell><mxCell id="55" value="&lt;font color=&quot;#ffffff&quot;&gt;RouteRule 3&lt;/font&gt;" style="rounded=1;whiteSpace=wrap;html=1;fontSize=24;fillColor=#1ba1e2;strokeColor=#006EAF;fontColor=#ffffff;" parent="1" vertex="1"><mxGeometry x="576.25" y="2040" width="167.5" height="40" as="geometry"/></mxCell><mxCell id="56" value="&lt;font style=&quot;font-size: 24px;&quot;&gt;&lt;b&gt;JDBC&lt;/b&gt;&lt;/font&gt;" style="rounded=1;whiteSpace=wrap;html=1;fillColor=#1ba1e2;fontColor=#ffffff;strokeColor=#006EAF;" parent="1" vertex="1"><mxGeometry x="71.88000000000001" y="2150" width="690" height="60" as="geometry"/></mxCell><mxCell id="57" value="" style="rounded=0;whiteSpace=wrap;html=1;fontSize=24;fillColor=#60a917;strokeColor=#2D7600;fontColor=#ffffff;" parent="1" vertex="1"><mxGeometry x="75.01" y="2260" width="450" height="230" as="geometry"/></mxCell><mxCell id="58" value="&lt;span style=&quot;&quot; data-slate-fragment=&quot;JTVCJTdCJTIydHlwZSUyMiUzQSUyMnBhcmFncmFwaCUyMiUyQyUyMmNoaWxkcmVuJTIyJTNBJTVCJTdCJTIyaWQlMjIlM0ElMjJWZDJMZ3hYcGFCJTIyJTJDJTIycGFyYUlkeCUyMiUzQTAlMkMlMjJzcmMlMjIlM0ElMjJjbHVzdGVyJTIyJTJDJTIyZHN0JTIyJTNBJTIyJUU3JUIwJTg3JTIyJTJDJTIybWV0YWRhdGElMjIlM0ElMjIlMjIlMkMlMjJtZXRhRGF0YSUyMiUzQSU1QiU1RCUyQyUyMnRleHQlMjIlM0ElMjJjbHVzdGVyJTIyJTdEJTVEJTdEJTVE&quot;&gt;&lt;font style=&quot;font-size: 36px;&quot;&gt;Cluster&lt;/font&gt;&lt;/span&gt;" style="text;html=1;strokeColor=none;fillColor=none;align=center;verticalAlign=middle;whiteSpace=wrap;rounded=0;fontSize=24;" parent="1" vertex="1"><mxGeometry x="120" y="2280" width="110" height="50" as="geometry"/></mxCell><mxCell id="59" value="&lt;font style=&quot;font-size: 24px;&quot;&gt;Node1&lt;/font&gt;" style="rounded=1;whiteSpace=wrap;html=1;fontSize=36;fillColor=#1ba1e2;fontColor=#ffffff;strokeColor=#006EAF;" parent="1" vertex="1"><mxGeometry x="150" y="2360" width="80" height="70" as="geometry"/></mxCell><mxCell id="60" value="&lt;font style=&quot;font-size: 24px;&quot;&gt;Node1&lt;/font&gt;" style="rounded=1;whiteSpace=wrap;html=1;fontSize=36;fillColor=#1ba1e2;fontColor=#ffffff;strokeColor=#006EAF;" parent="1" vertex="1"><mxGeometry x="270" y="2360" width="80" height="70" as="geometry"/></mxCell><mxCell id="61" value="&lt;font style=&quot;font-size: 24px;&quot;&gt;Node1&lt;/font&gt;" style="rounded=1;whiteSpace=wrap;html=1;fontSize=36;fillColor=#1ba1e2;fontColor=#ffffff;strokeColor=#006EAF;" parent="1" vertex="1"><mxGeometry x="395" y="2360" width="80" height="70" as="geometry"/></mxCell><mxCell id="62" value="ClusterRoutingDataSource" style="rounded=1;whiteSpace=wrap;html=1;fontSize=24;fillColor=#f0a30a;strokeColor=#BD7000;fontColor=#000000;" parent="1" vertex="1"><mxGeometry x="70" y="2570" width="339.99" height="90" as="geometry"/></mxCell><mxCell id="63" value="ClusterManager" style="rounded=1;whiteSpace=wrap;html=1;fontSize=24;fillColor=#f0a30a;strokeColor=#BD7000;fontColor=#000000;" parent="1" vertex="1"><mxGeometry x="70" y="2670" width="339.99" height="90" as="geometry"/></mxCell><mxCell id="64" value="Cluster" style="rounded=1;whiteSpace=wrap;html=1;fontSize=24;fillColor=#f0a30a;strokeColor=#BD7000;fontColor=#000000;" parent="1" vertex="1"><mxGeometry x="70" y="2770" width="339.99" height="90" as="geometry"/></mxCell><mxCell id="65" value="" style="rounded=0;whiteSpace=wrap;html=1;fillColor=#d5e8d4;strokeColor=#82b366;" parent="1" vertex="1"><mxGeometry x="55" y="2940" width="605" height="300" as="geometry"/></mxCell><mxCell id="66" value="&lt;font color=&quot;#000000&quot; style=&quot;font-size: 18px;&quot;&gt;method 1&lt;/font&gt;" style="text;html=1;strokeColor=none;fillColor=none;align=center;verticalAlign=middle;whiteSpace=wrap;rounded=0;" parent="1" vertex="1"><mxGeometry x="80" y="2950" width="80" height="40" as="geometry"/></mxCell><mxCell id="67" value="" style="rounded=0;whiteSpace=wrap;html=1;fillColor=#f8cecc;strokeColor=#b85450;" parent="1" vertex="1"><mxGeometry x="96.25" y="3010" width="543.75" height="210" as="geometry"/></mxCell><mxCell id="68" value="&lt;font color=&quot;#000000&quot; style=&quot;font-size: 18px;&quot;&gt;method 2&lt;/font&gt;" style="text;html=1;strokeColor=none;fillColor=none;align=center;verticalAlign=middle;whiteSpace=wrap;rounded=0;" parent="1" vertex="1"><mxGeometry x="110" y="3020" width="80" height="40" as="geometry"/></mxCell><mxCell id="69" value="" style="rounded=0;whiteSpace=wrap;html=1;fillColor=#dae8fc;strokeColor=#6c8ebf;" parent="1" vertex="1"><mxGeometry x="120.01" y="3070" width="499.99" height="130" as="geometry"/></mxCell><mxCell id="70" value="&lt;font color=&quot;#000000&quot; style=&quot;font-size: 18px;&quot;&gt;method 3&lt;/font&gt;" style="text;html=1;strokeColor=none;fillColor=none;align=center;verticalAlign=middle;whiteSpace=wrap;rounded=0;" parent="1" vertex="1"><mxGeometry x="135" y="3080" width="80" height="40" as="geometry"/></mxCell><mxCell id="71" value="" style="rounded=0;whiteSpace=wrap;html=1;fontColor=#ffffff;fillColor=#1ba1e2;strokeColor=#006EAF;" parent="1" vertex="1"><mxGeometry x="70" y="3300" width="150" height="110" as="geometry"/></mxCell><mxCell id="74" value="routing info" style="text;html=1;strokeColor=none;fillColor=none;align=center;verticalAlign=middle;whiteSpace=wrap;rounded=0;fontSize=18;fontColor=#000000;" parent="1" vertex="1"><mxGeometry x="100" y="3320" width="60" height="30" as="geometry"/></mxCell><mxCell id="75" value="" style="rounded=0;whiteSpace=wrap;html=1;fontColor=#ffffff;fillColor=#1ba1e2;strokeColor=#006EAF;" parent="1" vertex="1"><mxGeometry x="295.01" y="3300" width="150" height="110" as="geometry"/></mxCell><mxCell id="76" value="routing info" style="text;html=1;strokeColor=none;fillColor=none;align=center;verticalAlign=middle;whiteSpace=wrap;rounded=0;fontSize=18;fontColor=#000000;" parent="1" vertex="1"><mxGeometry x="310" y="3320" width="60" height="30" as="geometry"/></mxCell><mxCell id="78" style="edgeStyle=orthogonalEdgeStyle;rounded=0;orthogonalLoop=1;jettySize=auto;html=1;entryX=1;entryY=0.5;entryDx=0;entryDy=0;fontSize=18;fontColor=#000000;strokeWidth=3;" parent="1" source="77" target="71" edge="1"><mxGeometry relative="1" as="geometry"/></mxCell><mxCell id="77" value="prev" style="text;html=1;strokeColor=none;fillColor=none;align=center;verticalAlign=middle;whiteSpace=wrap;rounded=0;fontSize=18;fontColor=#000000;" parent="1" vertex="1"><mxGeometry x="340.01" y="3360" width="60" height="30" as="geometry"/></mxCell><mxCell id="79" value="" style="rounded=0;whiteSpace=wrap;html=1;fontColor=#ffffff;fillColor=#1ba1e2;strokeColor=#006EAF;" parent="1" vertex="1"><mxGeometry x="510" y="3300" width="150" height="110" as="geometry"/></mxCell><mxCell id="80" value="routing info" style="text;html=1;strokeColor=none;fillColor=none;align=center;verticalAlign=middle;whiteSpace=wrap;rounded=0;fontSize=18;fontColor=#000000;" parent="1" vertex="1"><mxGeometry x="524.99" y="3320" width="60" height="30" as="geometry"/></mxCell><mxCell id="82" style="edgeStyle=orthogonalEdgeStyle;rounded=0;orthogonalLoop=1;jettySize=auto;html=1;entryX=1;entryY=0.5;entryDx=0;entryDy=0;fontSize=18;fontColor=#000000;strokeWidth=3;" parent="1" source="81" target="75" edge="1"><mxGeometry relative="1" as="geometry"/></mxCell><mxCell id="81" value="prev" style="text;html=1;strokeColor=none;fillColor=none;align=center;verticalAlign=middle;whiteSpace=wrap;rounded=0;fontSize=18;fontColor=#000000;" parent="1" vertex="1"><mxGeometry x="555" y="3360" width="60" height="30" as="geometry"/></mxCell><mxCell id="83" value="root" style="text;html=1;strokeColor=none;fillColor=none;align=center;verticalAlign=middle;whiteSpace=wrap;rounded=0;fontSize=18;fontColor=#000000;" parent="1" vertex="1"><mxGeometry x="110" y="3360" width="60" height="30" as="geometry"/></mxCell><mxCell id="86" value="" style="edgeStyle=orthogonalEdgeStyle;rounded=0;orthogonalLoop=1;jettySize=auto;html=1;fontColor=#000000;entryX=0;entryY=0.5;entryDx=0;entryDy=0;strokeWidth=3;" parent="1" source="84" target="85" edge="1"><mxGeometry relative="1" as="geometry"/></mxCell><mxCell id="88" style="edgeStyle=orthogonalEdgeStyle;rounded=0;orthogonalLoop=1;jettySize=auto;html=1;entryX=0;entryY=0.5;entryDx=0;entryDy=0;fontSize=18;fontColor=#000000;strokeWidth=2;" parent="1" source="84" target="87" edge="1"><mxGeometry relative="1" as="geometry"/></mxCell><mxCell id="90" style="edgeStyle=orthogonalEdgeStyle;rounded=0;orthogonalLoop=1;jettySize=auto;html=1;entryX=0;entryY=0.5;entryDx=0;entryDy=0;fontSize=18;fontColor=#000000;strokeWidth=3;" parent="1" source="84" target="89" edge="1"><mxGeometry relative="1" as="geometry"/></mxCell><mxCell id="84" value="&lt;pre style=&quot;&quot;&gt;&lt;font style=&quot;font-size: 18px;&quot; color=&quot;#000000&quot;&gt;SqlRoutingEventListener&lt;/font&gt;&lt;/pre&gt;" style="rounded=1;whiteSpace=wrap;html=1;fillColor=#60a917;fontColor=#ffffff;strokeColor=#2D7600;" parent="1" vertex="1"><mxGeometry x="37.5" y="3588.5" width="275" height="123" as="geometry"/></mxCell><mxCell id="85" value="&lt;font style=&quot;font-size: 18px;&quot;&gt;Logging&lt;/font&gt;" style="whiteSpace=wrap;html=1;fillColor=#60a917;strokeColor=#2D7600;fontColor=#ffffff;rounded=1;" parent="1" vertex="1"><mxGeometry x="390" y="3500" width="180" height="80" as="geometry"/></mxCell><mxCell id="93" style="edgeStyle=orthogonalEdgeStyle;rounded=0;orthogonalLoop=1;jettySize=auto;html=1;fontSize=18;fontColor=#000000;strokeWidth=3;" parent="1" source="87" target="92" edge="1"><mxGeometry relative="1" as="geometry"/></mxCell><mxCell id="87" value="&lt;font style=&quot;font-size: 18px;&quot;&gt;Collect Data&lt;/font&gt;" style="whiteSpace=wrap;html=1;fillColor=#60a917;strokeColor=#2D7600;fontColor=#ffffff;rounded=1;" parent="1" vertex="1"><mxGeometry x="390" y="3610" width="180" height="80" as="geometry"/></mxCell><mxCell id="89" value="&lt;font style=&quot;font-size: 18px;&quot;&gt;....&lt;/font&gt;" style="whiteSpace=wrap;html=1;fillColor=#60a917;strokeColor=#2D7600;fontColor=#ffffff;rounded=1;" parent="1" vertex="1"><mxGeometry x="390" y="3720" width="180" height="80" as="geometry"/></mxCell><mxCell id="95" value="" style="edgeStyle=orthogonalEdgeStyle;rounded=0;orthogonalLoop=1;jettySize=auto;html=1;fontSize=18;fontColor=#000000;strokeWidth=3;" parent="1" source="92" target="94" edge="1"><mxGeometry relative="1" as="geometry"/></mxCell><mxCell id="92" value="&lt;font color=&quot;#000000&quot;&gt;Metrics Data Storage&lt;/font&gt;" style="rounded=1;whiteSpace=wrap;html=1;fontSize=18;fillColor=#d0cee2;strokeColor=#56517e;" parent="1" vertex="1"><mxGeometry x="700" y="3575" width="210" height="150" as="geometry"/></mxCell><mxCell id="94" value="&lt;font color=&quot;#000000&quot;&gt;Metrics Data View&lt;/font&gt;" style="rounded=1;whiteSpace=wrap;html=1;fontSize=18;fillColor=#b0e3e6;strokeColor=#0e8088;" parent="1" vertex="1"><mxGeometry x="700" y="3805" width="210" height="115" as="geometry"/></mxCell><mxCell id="98" value="" style="edgeStyle=orthogonalEdgeStyle;rounded=0;orthogonalLoop=1;jettySize=auto;html=1;" parent="1" source="96" target="97" edge="1"><mxGeometry relative="1" as="geometry"/></mxCell><mxCell id="96" value="&lt;font style=&quot;font-size: 18px;&quot;&gt;MetricsCollectEventListener&lt;/font&gt;" style="whiteSpace=wrap;html=1;fillColor=#60a917;strokeColor=#2D7600;fontColor=#ffffff;rounded=1;" parent="1" vertex="1"><mxGeometry x="135" y="3860" width="290" height="80" as="geometry"/></mxCell><mxCell id="100" value="" style="edgeStyle=orthogonalEdgeStyle;rounded=0;orthogonalLoop=1;jettySize=auto;html=1;" parent="1" source="97" target="99" edge="1"><mxGeometry relative="1" as="geometry"/></mxCell><mxCell id="97" value="&lt;font style=&quot;font-size: 18px;&quot;&gt;MetricsCollector&lt;/font&gt;" style="whiteSpace=wrap;html=1;fillColor=#a20025;strokeColor=#6F0000;rounded=1;fontColor=#ffffff;" parent="1" vertex="1"><mxGeometry x="176.25" y="3992" width="207.5" height="88" as="geometry"/></mxCell><mxCell id="102" value="" style="edgeStyle=orthogonalEdgeStyle;rounded=0;orthogonalLoop=1;jettySize=auto;html=1;exitX=0.5;exitY=1;exitDx=0;exitDy=0;" parent="1" source="99" target="101" edge="1"><mxGeometry relative="1" as="geometry"/></mxCell><mxCell id="106" style="edgeStyle=orthogonalEdgeStyle;rounded=0;orthogonalLoop=1;jettySize=auto;html=1;entryX=0.5;entryY=0;entryDx=0;entryDy=0;" parent="1" source="99" target="103" edge="1"><mxGeometry relative="1" as="geometry"/></mxCell><mxCell id="107" style="edgeStyle=orthogonalEdgeStyle;rounded=0;orthogonalLoop=1;jettySize=auto;html=1;entryX=0.5;entryY=0;entryDx=0;entryDy=0;" parent="1" source="99" target="104" edge="1"><mxGeometry relative="1" as="geometry"/></mxCell><mxCell id="108" style="edgeStyle=orthogonalEdgeStyle;rounded=0;orthogonalLoop=1;jettySize=auto;html=1;entryX=0.5;entryY=0;entryDx=0;entryDy=0;exitX=0.5;exitY=1;exitDx=0;exitDy=0;" parent="1" source="99" target="105" edge="1"><mxGeometry relative="1" as="geometry"/></mxCell><mxCell id="99" value="&lt;font color=&quot;#ffffff&quot; style=&quot;font-size: 18px;&quot;&gt;MetricsRepository&lt;/font&gt;" style="whiteSpace=wrap;html=1;fillColor=#fa6800;strokeColor=#C73500;fontColor=#000000;rounded=1;" parent="1" vertex="1"><mxGeometry x="192.5" y="4140" width="175" height="76" as="geometry"/></mxCell><mxCell id="110" value="" style="edgeStyle=orthogonalEdgeStyle;rounded=0;orthogonalLoop=1;jettySize=auto;html=1;" parent="1" source="101" target="109" edge="1"><mxGeometry relative="1" as="geometry"/></mxCell><mxCell id="101" value="&lt;font style=&quot;font-size: 18px;&quot;&gt;&lt;font style=&quot;&quot;&gt;SqlMetrics&lt;/font&gt;Repository&lt;/font&gt;" style="rounded=1;whiteSpace=wrap;html=1;fillColor=#0050ef;strokeColor=#001DBC;fontColor=#ffffff;" parent="1" vertex="1"><mxGeometry x="-190" y="4290" width="183.75" height="70" as="geometry"/></mxCell><mxCell id="112" style="edgeStyle=orthogonalEdgeStyle;rounded=0;orthogonalLoop=1;jettySize=auto;html=1;fontSize=18;fontColor=#000000;" parent="1" source="103" target="111" edge="1"><mxGeometry relative="1" as="geometry"/></mxCell><mxCell id="103" value="&lt;font style=&quot;font-size: 18px;&quot;&gt;&lt;font style=&quot;&quot;&gt;RoutingMetrics&lt;/font&gt;Repository&lt;/font&gt;" style="rounded=1;whiteSpace=wrap;html=1;fillColor=#0050ef;strokeColor=#001DBC;fontColor=#ffffff;" parent="1" vertex="1"><mxGeometry x="20" y="4290" width="220" height="70" as="geometry"/></mxCell><mxCell id="114" style="edgeStyle=orthogonalEdgeStyle;rounded=0;orthogonalLoop=1;jettySize=auto;html=1;fontSize=18;fontColor=#000000;" parent="1" source="104" target="113" edge="1"><mxGeometry relative="1" as="geometry"/></mxCell><mxCell id="104" value="&lt;font style=&quot;font-size: 18px;&quot;&gt;&lt;font style=&quot;&quot;&gt;TransactionMetrics&lt;/font&gt;Repository&lt;/font&gt;" style="rounded=1;whiteSpace=wrap;html=1;fillColor=#0050ef;strokeColor=#001DBC;fontColor=#ffffff;" parent="1" vertex="1"><mxGeometry x="266.88" y="4290" width="255" height="70" as="geometry"/></mxCell><mxCell id="116" style="edgeStyle=orthogonalEdgeStyle;rounded=0;orthogonalLoop=1;jettySize=auto;html=1;fontSize=18;fontColor=#000000;" parent="1" source="105" target="115" edge="1"><mxGeometry relative="1" as="geometry"/></mxCell><mxCell id="105" value="&lt;span style=&quot;font-size: 18px;&quot;&gt;...&lt;/span&gt;" style="rounded=1;whiteSpace=wrap;html=1;fillColor=#0050ef;strokeColor=#001DBC;fontColor=#ffffff;" parent="1" vertex="1"><mxGeometry x="570" y="4290" width="122.5" height="70" as="geometry"/></mxCell><mxCell id="109" value="&lt;font style=&quot;font-size: 18px;&quot; color=&quot;#000000&quot;&gt;File&lt;/font&gt;" style="whiteSpace=wrap;html=1;fillColor=#f8cecc;strokeColor=#b85450;rounded=1;" parent="1" vertex="1"><mxGeometry x="-158.125" y="4390" width="120" height="60" as="geometry"/></mxCell><mxCell id="111" value="&lt;font style=&quot;font-size: 18px;&quot; color=&quot;#000000&quot;&gt;File&lt;/font&gt;" style="whiteSpace=wrap;html=1;fillColor=#f8cecc;strokeColor=#b85450;rounded=1;" parent="1" vertex="1"><mxGeometry x="69.99499999999999" y="4390" width="120" height="60" as="geometry"/></mxCell><mxCell id="113" value="&lt;font style=&quot;font-size: 18px;&quot; color=&quot;#000000&quot;&gt;File&lt;/font&gt;" style="whiteSpace=wrap;html=1;fillColor=#f8cecc;strokeColor=#b85450;rounded=1;" parent="1" vertex="1"><mxGeometry x="334.385" y="4390" width="120" height="60" as="geometry"/></mxCell><mxCell id="115" value="&lt;font style=&quot;font-size: 18px;&quot; color=&quot;#000000&quot;&gt;File&lt;/font&gt;" style="whiteSpace=wrap;html=1;fillColor=#f8cecc;strokeColor=#b85450;rounded=1;" parent="1" vertex="1"><mxGeometry x="570.005" y="4390" width="120" height="60" as="geometry"/></mxCell><mxCell id="117" value="" style="rounded=0;whiteSpace=wrap;html=1;fillColor=#cdeb8b;strokeColor=#36393d;" parent="1" vertex="1"><mxGeometry x="-140" y="4530" width="250" height="380" as="geometry"/></mxCell><mxCell id="118" value="&lt;font style=&quot;font-size: 18px;&quot; color=&quot;#000000&quot;&gt;TRXID&lt;/font&gt;" style="text;html=1;strokeColor=none;fillColor=none;align=center;verticalAlign=middle;whiteSpace=wrap;rounded=0;" parent="1" vertex="1"><mxGeometry x="-114.99000000000001" y="4560" width="121.87" height="30" as="geometry"/></mxCell><mxCell id="119" value="&lt;font color=&quot;#000000&quot;&gt;StatementID&lt;/font&gt;" style="rounded=0;whiteSpace=wrap;html=1;fontSize=18;fillColor=#cce5ff;strokeColor=#36393d;" parent="1" vertex="1"><mxGeometry x="-103.12" y="4610" width="180" height="60" as="geometry"/></mxCell><mxCell id="120" value="&lt;font color=&quot;#000000&quot;&gt;StatementID&lt;/font&gt;" style="rounded=0;whiteSpace=wrap;html=1;fontSize=18;fillColor=#cce5ff;strokeColor=#36393d;" parent="1" vertex="1"><mxGeometry x="-103.12" y="4690" width="180" height="60" as="geometry"/></mxCell><mxCell id="121" value="&lt;font color=&quot;#000000&quot;&gt;StatementID&lt;/font&gt;" style="rounded=0;whiteSpace=wrap;html=1;fontSize=18;fillColor=#cce5ff;strokeColor=#36393d;" parent="1" vertex="1"><mxGeometry x="-103.12" y="4780" width="180" height="60" as="geometry"/></mxCell></root></mxGraphModel></diagram></mxfile>